<svg id="visual" viewBox="0 0 900 600" width="900" height="600" xmlns="http://www.w3.org/2000/svg" xmlns:xlink="http://www.w3.org/1999/xlink" version="1.1"><path d="M0 37L11.5 40C23 43 46 49 69 51C92 53 115 51 138.2 56C161.3 61 184.7 73 207.8 77C231 81 254 77 277 73C300 69 323 65 346 66C369 67 392 73 415.2 77C438.3 81 461.7 83 484.8 75C508 67 531 49 554 41C577 33 600 35 623 40C646 45 669 53 692.2 60C715.3 67 738.7 73 761.8 71C785 69 808 59 831 52C854 45 877 41 888.5 39L900 37L900 0L888.5 0C877 0 854 0 831 0C808 0 785 0 761.8 0C738.7 0 715.3 0 692.2 0C669 0 646 0 623 0C600 0 577 0 554 0C531 0 508 0 484.8 0C461.7 0 438.3 0 415.2 0C392 0 369 0 346 0C323 0 300 0 277 0C254 0 231 0 207.8 0C184.7 0 161.3 0 138.2 0C115 0 92 0 69 0C46 0 23 0 11.5 0L0 0Z" fill="#513eb8"></path><path d="M0 73L11.5 81C23 89 46 105 69 119C92 133 115 145 138.2 146C161.3 147 184.7 137 207.8 133C231 129 254 131 277 132C300 133 323 133 346 136C369 139 392 145 415.2 151C438.3 157 461.7 163 484.8 154C508 145 531 121 554 108C577 95 600 93 623 94C646 95 669 99 692.2 105C715.3 111 738.7 119 761.8 119C785 119 808 111 831 107C854 103 877 103 888.5 103L900 103L900 35L888.5 37C877 39 854 43 831 50C808 57 785 67 761.8 69C738.7 71 715.3 65 692.2 58C669 51 646 43 623 38C600 33 577 31 554 39C531 47 508 65 484.8 73C461.7 81 438.3 79 415.2 75C392 71 369 65 346 64C323 63 300 67 277 71C254 75 231 79 207.8 75C184.7 71 161.3 59 138.2 54C115 49 92 51 69 49C46 47 23 41 11.5 38L0 35Z" fill="#715df2"></path><path d="M0 157L11.5 157C23 157 46 157 69 165C92 173 115 189 138.2 195C161.3 201 184.7 197 207.8 194C231 191 254 189 277 185C300 181 323 175 346 182C369 189 392 209 415.2 215C438.3 221 461.7 213 484.8 199C508 185 531 165 554 154C577 143 600 141 623 147C646 153 669 167 692.2 179C715.3 191 738.7 201 761.8 204C785 207 808 203 831 191C854 179 877 159 888.5 149L900 139L900 101L888.5 101C877 101 854 101 831 105C808 109 785 117 761.8 117C738.7 117 715.3 109 692.2 103C669 97 646 93 623 92C600 91 577 93 554 106C531 119 508 143 484.8 152C461.7 161 438.3 155 415.2 149C392 143 369 137 346 134C323 131 300 131 277 130C254 129 231 127 207.8 131C184.7 135 161.3 145 138.2 144C115 143 92 131 69 117C46 103 23 87 11.5 79L0 71Z" fill="#9e90fa"></path><path d="M0 235L11.5 251C23 267 46 299 69 316C92 333 115 335 138.2 347C161.3 359 184.7 381 207.8 386C231 391 254 379 277 382C300 385 323 403 346 399C369 395 392 369 415.2 359C438.3 349 461.7 355 484.8 342C508 329 531 297 554 279C577 261 600 257 623 266C646 275 669 297 692.2 305C715.3 313 738.7 307 761.8 304C785 301 808 301 831 309C854 317 877 333 888.5 341L900 349L900 137L888.5 147C877 157 854 177 831 189C808 201 785 205 761.8 202C738.7 199 715.3 189 692.2 177C669 165 646 151 623 145C600 139 577 141 554 152C531 163 508 183 484.8 197C461.7 211 438.3 219 415.2 213C392 207 369 187 346 180C323 173 300 179 277 183C254 187 231 189 207.8 192C184.7 195 161.3 199 138.2 193C115 187 92 171 69 163C46 155 23 155 11.5 155L0 155Z" fill="#9e90fa"></path><path d="M0 445L11.5 452C23 459 46 473 69 486C92 499 115 511 138.2 521C161.3 531 184.7 539 207.8 536C231 533 254 519 277 511C300 503 323 501 346 504C369 507 392 515 415.2 522C438.3 529 461.7 535 484.8 529C508 523 531 505 554 494C577 483 600 479 623 477C646 475 669 475 692.2 479C715.3 483 738.7 491 761.8 502C785 513 808 527 831 526C854 525 877 509 888.5 501L900 493L900 347L888.5 339C877 331 854 315 831 307C808 299 785 299 761.8 302C738.7 305 715.3 311 692.2 303C669 295 646 273 623 264C600 255 577 259 554 277C531 295 508 327 484.8 340C461.7 353 438.3 347 415.2 357C392 367 369 393 346 397C323 401 300 383 277 380C254 377 231 389 207.8 384C184.7 379 161.3 357 138.2 345C115 333 92 331 69 314C46 297 23 265 11.5 249L0 233Z" fill="#715df2"></path><path d="M0 601L11.5 601C23 601 46 601 69 601C92 601 115 601 138.2 601C161.3 601 184.7 601 207.8 601C231 601 254 601 277 601C300 601 323 601 346 601C369 601 392 601 415.2 601C438.3 601 461.7 601 484.8 601C508 601 531 601 554 601C577 601 600 601 623 601C646 601 669 601 692.2 601C715.3 601 738.7 601 761.8 601C785 601 808 601 831 601C854 601 877 601 888.5 601L900 601L900 491L888.5 499C877 507 854 523 831 524C808 525 785 511 761.8 500C738.7 489 715.3 481 692.2 477C669 473 646 473 623 475C600 477 577 481 554 492C531 503 508 521 484.8 527C461.7 533 438.3 527 415.2 520C392 513 369 505 346 502C323 499 300 501 277 509C254 517 231 531 207.8 534C184.7 537 161.3 529 138.2 519C115 509 92 497 69 484C46 471 23 457 11.5 450L0 443Z" fill="#513eb8"></path></svg>